<svg xmlns="http://www.w3.org/2000/svg" width="167" height="40"><path fill="#0a3e93" d="M151.424 6.048V21.69l6.144-7.855h7.393l-6.074 7.468 6.967 10.335h-8.038l-6.392-9.912v9.912h-6.785V6.048zm-22.005 9.734c1.533-1.77 3.32-2.479 5.609-2.479 3.854 0 6.71 2.48 6.71 6.407v11.928h-6.782V21.443c0-1.944-.504-3.892-2.61-3.892-2.356 0-2.927 1.733-2.927 3.507v10.58h-6.787V18.4c0-1.592-.037-2.655-.212-4.565h6.889c.037.636.074 1.31.11 1.947zm-16.18 7.396c-2.036 0-3 .038-3.715.39-1 .497-1.783 1.133-1.783 2.373 0 1.275 1.032 2.336 2.32 2.336 2.925 0 3.178-2.728 3.178-5.1zm.105 6.052h-.068c-.964 1.911-3.392 2.94-5.717 2.94-4.179 0-6.391-2.197-6.391-5.736 0-4.493 4.036-6.264 9.928-6.264h2.143v-1.097c0-1.31-.217-2.655-2.18-2.655-1.678 0-2.32 1.346-2.32 2.727h-6.394c.037-5.134 5.396-5.842 9.286-5.842 3.607 0 7.966 1.487 7.966 5.416v9.273c0 .744.142 1.524.392 3.646h-6.502c-.143-.564-.143-1.13-.143-2.408zM86.279 23c0 1.983.61 5.276 3.072 5.276 2.966 0 3.465-3.327 3.465-5.63 0-2.195-.319-5.45-3.214-5.45-3.073 0-3.323 3.433-3.323 5.804zm0-16.953v9.662h.075c1.245-1.593 3.425-2.407 5.463-2.407 5.5 0 7.966 4.106 7.966 9.133 0 5.45-2.433 9.733-8.359 9.733-2.073 0-4.536-1.346-5.002-3.15h-.143c-.071.885-.105 1.735-.176 2.619h-6.608V6.048zm-17.007 7.787h6.785v17.804h-6.785zm-1.92-7.787V11H56.244v5.947h10.323v4.956H56.245v9.734h-7.14V6.048zm-42.044 1.81l-.879.868 12.007 11.9.876-.871zm-3.574.798l3.502-3.475 14.77 14.644-3.5 3.472zm1.776-5.183L8.74 18.113l-3.503-3.472L20.01 0zm-15.578 11.1l.877.867L20.815 3.544l-.878-.868zM32.08 25.08l-.877-.868-12.005 11.895.877.869zM16.5 36.177l14.772-14.64 3.502 3.472-14.768 14.64zM3.502 16.351l14.772 14.64-3.501 3.476L0 19.825zm-.805 3.545l12.007 11.891.871-.864-12.003-11.9zm15.078-7.443h4.459V27.2h-4.459z"/><path fill="#d8232a" d="M69.347 10.877h6.723V5.965h-6.723z"/></svg>